<svg width="90" height="68" viewBox="0 0 90 68" fill="none" xmlns="http://www.w3.org/2000/svg">
    <path fill-rule="evenodd" clip-rule="evenodd" d="M44.9439 13.2441L82.1804 31.8605L81.9815 32.687H8.02467L7.8252 31.8607L44.9439 13.2441ZM44.9445 14.223L9.87158 31.8135H80.1293L44.9445 14.223Z" fill="url(#paint0_linear_772_16011)"/>
    <path fill-rule="evenodd" clip-rule="evenodd" d="M46.2975 18.3045H43.4145V17.4311H46.2975V18.3045Z" fill="url(#paint1_linear_772_16011)"/>
    <path fill-rule="evenodd" clip-rule="evenodd" d="M52.5341 21.7982H37.2367V20.9248H52.5341V21.7982Z" fill="url(#paint2_linear_772_16011)"/>
    <path fill-rule="evenodd" clip-rule="evenodd" d="M60.0062 25.2919H29.6469V24.4185H60.0062V25.2919Z" fill="url(#paint3_linear_772_16011)"/>
    <path fill-rule="evenodd" clip-rule="evenodd" d="M67.6549 28.7857H22.1159V27.9122H67.6549V28.7857Z" fill="url(#paint4_linear_772_16011)"/>
    <path fill-rule="evenodd" clip-rule="evenodd" d="M44.2327 0.0286394C44.2121 0.061632 44.1724 0.473565 44.1446 0.944065C44.1148 1.447 44.0452 1.89517 43.9756 2.03148C43.8923 2.19478 43.871 2.39329 43.9037 2.70277C43.9483 3.12497 43.9411 3.14738 43.7195 3.27312C43.5928 3.34518 43.3762 3.55813 43.2383 3.7463C43.1003 3.93455 42.9285 4.08862 42.8563 4.0887C42.784 4.08886 42.6855 4.16739 42.6371 4.26337C42.556 4.42439 42.5393 4.42794 42.4196 4.30939C42.3069 4.19794 42.2715 4.19573 42.1509 4.29265C42.0501 4.37355 42.0292 4.37584 42.0746 4.3011C42.1092 4.24435 42.1153 4.11119 42.0884 4.00511C42.0264 3.76027 41.6438 3.72294 41.6438 3.9617C41.6438 4.04387 41.6949 4.13053 41.7574 4.15429C41.8496 4.18925 41.8547 4.25043 41.7839 4.47845C41.736 4.633 41.6669 4.75944 41.6304 4.75944C41.5675 4.75944 41.5308 4.36487 41.5597 3.99911C41.5675 3.90077 41.487 3.76374 41.3661 3.66966C41.2034 3.54298 41.1702 3.46515 41.2107 3.30524C41.243 3.1784 41.2291 3.10192 41.1739 3.10192C41.1253 3.10192 41.0855 3.05101 41.0855 2.98881C41.0855 2.85787 40.8097 2.75045 40.679 2.83048C40.6195 2.86687 40.6068 2.83238 40.6407 2.72653C40.6723 2.62819 40.651 2.55273 40.5846 2.52755C40.5258 2.50521 40.4349 2.34538 40.3825 2.17237C40.3301 1.99935 40.2378 1.81711 40.1773 1.76746C40.0885 1.69453 40.0576 1.72799 40.0172 1.94118C39.9324 2.38879 39.2512 2.59567 39.2512 2.17379C39.2512 2.11483 39.2112 2.09099 39.1623 2.1209C39.1078 2.15421 39.0878 2.3232 39.1105 2.55707C39.1509 2.97334 39.0432 3.13262 38.5933 3.32198C38.4285 3.39128 38.3739 3.46918 38.3739 3.63517C38.3739 3.89358 38.5726 4.20693 38.7364 4.20693C38.8072 4.20693 38.8434 4.27434 38.8316 4.38453C38.8145 4.54444 38.8482 4.56267 39.1715 4.56772C39.9463 4.57988 39.9093 4.55793 39.8604 4.9765C39.8362 5.18274 39.7941 5.55758 39.7668 5.8096C39.7238 6.20638 39.6698 6.32059 39.3645 6.66078C39.1552 6.89409 39.012 7.13088 39.012 7.24367C39.012 7.5702 38.8741 7.53705 38.693 7.16703C38.3329 6.43062 37.8086 6.85968 37.8254 7.87716C37.8385 8.66819 37.9012 8.89827 38.1121 8.92803C38.2786 8.95155 38.2853 8.93182 38.24 8.55311C38.1848 8.09201 38.2999 8.01592 38.4566 8.40993C38.6845 8.98289 38.8812 9.3889 39.0358 9.60548C39.1255 9.73122 39.2263 10.0051 39.2597 10.2141C39.2931 10.423 39.4674 10.9047 39.6472 11.2843L39.9741 11.9746L39.8494 12.4664C39.7358 12.9149 39.7363 13.0296 39.8552 13.7722C39.927 14.2199 40.0188 14.6479 40.0594 14.7234C40.1248 14.8451 40.4046 14.7263 42.5387 13.6697L44.9444 12.4788L47.0624 13.515L49.1805 14.5512L49.3246 14.0951C49.5433 13.4035 49.5854 12.6762 49.4282 12.3047C49.3038 12.0105 49.3055 11.9807 49.4666 11.6514C49.5594 11.4617 49.691 10.9789 49.7589 10.5784C49.8451 10.0705 49.9255 9.82033 50.0246 9.75095C50.2066 9.62356 50.7356 8.76496 50.7356 8.59692C50.7356 8.51396 50.8041 8.46913 50.9309 8.46913C51.1224 8.46913 51.1259 8.45721 51.1178 7.8377L51.1095 7.20626H50.8552C50.5597 7.20626 50.3385 7.40958 50.3332 7.68607C50.3306 7.82262 50.2637 7.73635 50.0989 7.38385C49.972 7.11257 49.8391 6.88975 49.8035 6.8888C49.7678 6.88786 49.6596 6.82566 49.5629 6.75068C49.4123 6.63386 49.3746 6.48958 49.3007 5.74606C49.2533 5.26854 49.1954 4.81572 49.1722 4.73971C49.1357 4.62068 49.1864 4.60158 49.5392 4.60158C49.9925 4.60158 50.2571 4.49874 50.2571 4.32257C50.2571 4.25895 50.292 4.20693 50.3348 4.20693C50.4386 4.20693 50.6559 3.78229 50.6559 3.57944C50.6559 3.49041 50.6225 3.41764 50.5818 3.41764C50.445 3.41764 49.9281 2.8806 50.0141 2.82796C50.1047 2.77255 50.1318 2.2337 50.0441 2.2337C50.0147 2.2337 49.9258 2.29163 49.8467 2.36251C49.7676 2.43331 49.585 2.49842 49.4408 2.50703C49.1829 2.52258 49.1793 2.51808 49.208 2.22036C49.2414 1.87338 49.1618 1.84086 48.9152 2.10062C48.8011 2.22091 48.7418 2.38406 48.7418 2.5783C48.7418 2.8338 48.7104 2.88415 48.5074 2.95424C48.3785 2.99868 48.2882 3.07674 48.3068 3.12773C48.3254 3.17864 48.2245 3.27359 48.0827 3.33871C47.8613 3.44029 47.8282 3.49215 47.8496 3.704C47.8688 3.89374 47.826 3.98869 47.6652 4.11388C47.5184 4.22809 47.442 4.37837 47.4095 4.61682C47.3422 5.10863 47.3645 5.50217 47.4614 5.53414C47.5887 5.57613 47.5629 5.68939 47.386 5.86446C47.2082 6.04039 47.1818 6.31246 47.3146 6.60079C47.3836 6.75091 47.3761 6.83245 47.2795 6.97942C47.2117 7.0825 47.0664 7.4687 46.9567 7.8377C46.7797 8.43267 46.2753 9.6736 46.1669 9.78086C46.0932 9.85379 46.0303 9.07436 46.0417 8.2299C46.0523 7.44289 46.0375 7.3612 45.7624 6.69353C45.4739 5.99303 45.4043 5.53871 45.5509 5.31195C45.6188 5.20705 45.6527 5.2076 45.8488 5.31716C46.0595 5.43476 46.069 5.46515 46.0466 5.94859C46.0261 6.38839 46.0676 6.74255 46.2387 7.58812C46.2702 7.74385 46.2952 7.75703 46.3982 7.67234C46.6115 7.49711 46.8277 6.98683 46.8277 6.65849C46.8277 6.48397 46.8861 6.19691 46.9574 6.0205C47.1349 5.58165 47.0629 5.13554 46.7533 4.75423L46.5066 4.45035L46.8211 4.36653C47.2084 4.26337 47.3832 4.00472 47.7077 3.0548C47.837 2.67602 47.9996 2.3041 48.0689 2.22833C48.2052 2.07915 48.2012 1.54859 48.0639 1.58253C48.02 1.59342 47.9842 1.63904 47.9842 1.68403C47.9842 1.7291 47.9446 1.79122 47.8962 1.82216C47.8479 1.85318 47.7456 2.06707 47.6689 2.29755C47.5923 2.5281 47.3806 2.9364 47.1986 3.20492C46.9071 3.63485 46.8295 3.69926 46.5486 3.74417C46.3731 3.77219 46.1697 3.76375 46.0965 3.72539C45.9447 3.6459 45.2501 3.72065 45.1859 3.82334C45.1626 3.86067 45.0943 3.89122 45.0342 3.89122C44.8581 3.89122 44.8566 3.55498 45.0315 3.31203C45.1627 3.12986 45.1908 2.97516 45.182 2.48311C45.1761 2.15035 45.126 1.73612 45.0705 1.56256C45.015 1.38907 44.9481 0.981161 44.9217 0.656129L44.8738 0.0651836L44.5719 0.0169576C44.406 -0.00964166 44.2532 -0.00435317 44.2327 0.0286394ZM34.2268 3.22031C34.2268 3.32884 34.1508 3.49286 34.0579 3.58481C33.8706 3.77014 33.8129 3.73123 33.6535 3.31219C33.5829 3.12631 33.5506 3.10618 33.4642 3.19379C33.246 3.41472 33.2493 3.68845 33.4731 3.92744C33.6803 4.14868 33.6823 4.16068 33.557 4.42068C33.4402 4.66315 33.4399 4.70869 33.5534 4.9259C33.6229 5.05898 33.6919 5.43508 33.7093 5.77534C33.7393 6.36384 33.7856 6.53812 34.0283 6.97342C34.0899 7.08408 34.1197 7.25314 34.0944 7.34912C34.0461 7.53169 33.4241 7.99555 33.2275 7.99555C33.1648 7.99555 33.0402 8.13763 32.9507 8.31127C32.7638 8.67395 32.6694 8.70734 32.6004 8.43519C32.5426 8.20724 32.3452 7.99555 32.1905 7.99555C32.1295 7.99555 32.0031 8.07543 31.9096 8.17315C31.7268 8.36392 31.7265 8.29888 31.9164 9.77147C32.0588 10.8752 32.1249 11.197 32.2615 11.4528C32.3744 11.664 32.4339 11.7034 32.5761 11.6614C32.8293 11.5863 32.9405 11.4597 32.9965 11.1828C33.0368 10.9833 33.0007 10.8879 32.7989 10.6604C32.6464 10.4885 32.552 10.296 32.552 10.1571V9.93217L32.7493 10.2195C32.8944 10.4309 33.0734 10.5555 33.4272 10.6912C33.8661 10.8597 33.9079 10.8963 33.9093 11.1129C33.9117 11.5013 34.5401 12.5702 34.9481 12.8803C35.1502 13.0338 35.2943 13.2045 35.2822 13.2762C35.2704 13.3455 35.2386 13.5188 35.2115 13.6614C35.1272 14.1038 35.4833 15.3695 35.836 15.8813C36.4028 16.7036 36.3276 16.6556 36.7393 16.4576C36.9365 16.3628 37.0979 16.2478 37.0979 16.2021C37.0979 16.1564 37.0232 15.9742 36.9321 15.7973C36.7329 15.411 36.778 15.1364 37.0518 15.0684C37.2593 15.0168 37.7287 14.6105 37.8822 14.3494L37.9751 14.1915L38.1016 14.3494C38.2002 14.4724 38.2207 14.6422 38.1946 15.119C38.1761 15.4553 38.1919 15.7307 38.2296 15.7307C38.2673 15.7307 38.5485 15.6059 38.8544 15.4534C39.4095 15.1768 39.4107 15.1755 39.4107 14.8465C39.4107 14.6651 39.4508 14.3192 39.4997 14.0779C39.5752 13.706 39.563 13.5091 39.4203 12.7879C39.1892 11.6212 38.9709 11.2313 38.2942 10.7769C37.8267 10.463 37.4096 10.0255 37.11 9.53468C36.5256 8.57734 36.1409 7.82388 36.1409 7.63658C36.1409 7.52521 36.1074 7.28511 36.0664 7.1031C36.0255 6.92109 35.9482 6.488 35.895 6.14071C35.7706 5.33034 35.4114 4.42178 35.0368 3.97015C34.8748 3.7748 34.6531 3.48205 34.5443 3.31953C34.3128 2.97398 34.2268 2.94706 34.2268 3.22031ZM54.4641 3.30153C54.3434 3.40462 54.2448 3.544 54.2448 3.61117C54.2448 3.67834 54.2089 3.73336 54.165 3.73336C54.1211 3.73336 54.0853 3.79145 54.0853 3.86241C54.0853 3.93344 53.9955 4.07378 53.8859 4.17442C53.7762 4.27497 53.6865 4.39621 53.6865 4.44388C53.6865 4.49148 53.628 4.64247 53.5565 4.77925C53.345 5.184 53.208 6.00637 53.208 6.87057C53.208 7.66547 53.2033 7.68599 52.9354 8.05499C52.7854 8.26155 52.5853 8.62573 52.4906 8.86425C52.1835 9.63768 51.6265 10.4424 51.3979 10.4424C51.3388 10.4424 51.1425 10.5393 50.9617 10.6577C50.5792 10.9082 50.2736 11.5033 50.0174 12.4964C49.8373 13.1943 49.8166 13.6116 49.9496 13.8575C49.9998 13.9503 50.0345 14.2312 50.027 14.4818L50.0132 14.9373L50.6517 15.255C51.003 15.4298 51.3104 15.5728 51.3349 15.5728C51.3594 15.5728 51.3568 15.2621 51.3293 14.8822C51.2905 14.3467 51.3048 14.1581 51.3929 14.043C51.4997 13.9034 51.5216 13.9187 51.7566 14.2967C51.9176 14.5556 52.1177 14.7548 52.3183 14.8562C52.4898 14.9428 52.6515 15.0691 52.6779 15.137C52.7043 15.2049 52.6548 15.4386 52.5681 15.6564C52.4814 15.8741 52.4104 16.0681 52.4104 16.0874C52.4104 16.1332 53.1813 16.52 53.2724 16.52C53.3109 16.52 53.3872 16.369 53.4421 16.1845C53.4971 16 53.6511 15.6721 53.7844 15.4557C54.1469 14.8678 54.3245 14.2803 54.3245 13.6697C54.3245 13.1474 54.3352 13.119 54.7309 12.5968C55.161 12.0289 55.4411 11.5445 55.4411 11.3683C55.4411 11.1995 55.6304 10.988 55.8021 10.9649C55.8886 10.9532 56.13 10.7223 56.3383 10.4517C56.7075 9.97219 56.7171 9.96587 56.7171 10.2035C56.7171 10.3376 56.6684 10.4658 56.6089 10.4885C56.5493 10.511 56.4554 10.6651 56.4002 10.8309C56.2616 11.2462 56.4173 11.5869 56.7455 11.5869C56.9368 11.5869 56.9883 11.5388 57.084 11.2711C57.1461 11.0975 57.1778 10.8748 57.1545 10.7762C57.1311 10.6777 57.1559 10.5178 57.2096 10.421C57.2632 10.3242 57.2983 10.0497 57.2876 9.81094C57.2767 9.57146 57.3226 9.22378 57.3898 9.03545C57.4954 8.74002 57.4968 8.6588 57.4008 8.43132C57.2832 8.1527 56.9975 8.00219 56.8546 8.14363C56.8075 8.19028 56.6763 8.39802 56.5633 8.60529C56.2925 9.10144 56.1602 9.07886 56.0393 8.51578C55.9937 8.3037 55.727 7.99595 55.3001 7.66271C55.2045 7.5882 55.1027 7.4335 55.0736 7.31897C55.0308 7.1503 55.0643 7.07642 55.25 6.92985C55.4782 6.74973 55.5075 6.59179 55.447 5.86446C55.4298 5.65853 55.5671 5.04312 55.6735 4.84863C55.7626 4.68588 55.7534 4.6315 55.6025 4.42944L55.4291 4.19731L55.6384 3.99012C55.7891 3.84094 55.841 3.71694 55.8238 3.54716C55.7893 3.20587 55.6663 3.21637 55.4572 3.5785C55.2827 3.88088 55.122 3.93392 55.122 3.68924C55.122 3.559 54.996 3.53698 54.9227 3.65443C54.8204 3.81813 54.7316 3.72278 54.7079 3.42372L54.6834 3.11408L54.4641 3.30153ZM42.5051 4.61737C42.6051 4.71635 42.635 5.211 42.5535 5.42095C42.5112 5.53011 42.486 5.52964 42.3105 5.41582C42.0966 5.27714 41.8544 4.78943 41.9179 4.6255C41.968 4.49637 42.3772 4.49077 42.5051 4.61737ZM43.7301 6.04221C43.7217 6.16171 43.6438 6.37481 43.5569 6.51578C43.4701 6.65683 43.3988 6.82976 43.3987 6.90025C43.3985 6.97065 43.3227 7.19773 43.2301 7.40477C43.0792 7.74251 43.065 7.89429 43.0924 8.88233L43.123 9.9834L42.7737 9.24604C42.5508 8.7753 42.4183 8.38018 42.4073 8.15341C42.384 7.67336 42.1673 6.97815 41.9356 6.64033C41.733 6.34482 41.5871 5.67163 41.7094 5.59681C41.7498 5.57218 41.8031 5.70218 41.828 5.88569C41.8769 6.24711 42.1947 6.60213 42.4306 6.55911C42.5023 6.54609 42.7567 6.24063 42.9959 5.8804L43.4308 5.22544L43.5881 5.52522C43.6746 5.6901 43.7384 5.92279 43.7301 6.04221Z" fill="url(#paint5_linear_772_16011)"/>
    <path d="M5.80923 68C5.00906 68 4.28357 67.8416 3.63277 67.5248C2.98196 67.2081 2.42184 66.7804 1.95241 66.2419C1.48298 65.6929 1.12024 65.0805 0.864182 64.4047C0.608128 63.7184 0.480101 63.0162 0.480101 62.2982C0.480101 61.5486 0.613463 60.8358 0.880186 60.1601C1.14691 59.4738 1.52032 58.8666 2.00042 58.3387C2.49119 57.8002 3.06198 57.3778 3.71278 57.0716C4.36359 56.7549 5.06774 56.5965 5.82523 56.5965C6.6254 56.5965 7.35089 56.7602 8.00169 57.0875C8.65249 57.4148 9.20728 57.853 9.66604 58.402C10.1355 58.9511 10.4982 59.5635 10.7543 60.2393C11.0103 60.915 11.1384 61.6066 11.1384 62.3141C11.1384 63.0637 11.005 63.7817 10.7383 64.4681C10.4715 65.1438 10.0981 65.751 9.61803 66.2894C9.13793 66.8174 8.57248 67.2345 7.92167 67.5407C7.27087 67.8469 6.56672 68 5.80923 68ZM1.60034 62.2982C1.60034 62.9106 1.70169 63.5019 1.9044 64.0721C2.10711 64.6317 2.39517 65.1333 2.76858 65.5767C3.142 66.0096 3.58476 66.3581 4.09687 66.622C4.61964 66.8755 5.19043 67.0022 5.80923 67.0022C6.46003 67.0022 7.04149 66.8702 7.55359 66.6062C8.07637 66.3317 8.51913 65.9727 8.88188 65.5292C9.25529 65.0752 9.53801 64.5684 9.73005 64.0088C9.9221 63.4491 10.0181 62.879 10.0181 62.2982C10.0181 61.6858 9.91676 61.0998 9.71405 60.5402C9.51134 59.9806 9.21795 59.479 8.83387 59.0356C8.46045 58.5921 8.01769 58.2437 7.50559 57.9902C6.99348 57.7368 6.42802 57.6101 5.80923 57.6101C5.16909 57.6101 4.58764 57.7421 4.06486 58.0061C3.55275 58.2701 3.10999 58.6291 2.73658 59.0831C2.37383 59.5266 2.09111 60.0281 1.8884 60.5877C1.69636 61.1473 1.60034 61.7175 1.60034 62.2982Z" fill="black"/>
    <path d="M5.80923 68C5.00906 68 4.28357 67.8416 3.63277 67.5248C2.98196 67.2081 2.42184 66.7804 1.95241 66.2419C1.48298 65.6929 1.12024 65.0805 0.864182 64.4047C0.608128 63.7184 0.480101 63.0162 0.480101 62.2982C0.480101 61.5486 0.613463 60.8358 0.880186 60.1601C1.14691 59.4738 1.52032 58.8666 2.00042 58.3387C2.49119 57.8002 3.06198 57.3778 3.71278 57.0716C4.36359 56.7549 5.06774 56.5965 5.82523 56.5965C6.6254 56.5965 7.35089 56.7602 8.00169 57.0875C8.65249 57.4148 9.20728 57.853 9.66604 58.402C10.1355 58.9511 10.4982 59.5635 10.7543 60.2393C11.0103 60.915 11.1384 61.6066 11.1384 62.3141C11.1384 63.0637 11.005 63.7817 10.7383 64.4681C10.4715 65.1438 10.0981 65.751 9.61803 66.2894C9.13793 66.8174 8.57248 67.2345 7.92167 67.5407C7.27087 67.8469 6.56672 68 5.80923 68ZM1.60034 62.2982C1.60034 62.9106 1.70169 63.5019 1.9044 64.0721C2.10711 64.6317 2.39517 65.1333 2.76858 65.5767C3.142 66.0096 3.58476 66.3581 4.09687 66.622C4.61964 66.8755 5.19043 67.0022 5.80923 67.0022C6.46003 67.0022 7.04149 66.8702 7.55359 66.6062C8.07637 66.3317 8.51913 65.9727 8.88188 65.5292C9.25529 65.0752 9.53801 64.5684 9.73005 64.0088C9.9221 63.4491 10.0181 62.879 10.0181 62.2982C10.0181 61.6858 9.91676 61.0998 9.71405 60.5402C9.51134 59.9806 9.21795 59.479 8.83387 59.0356C8.46045 58.5921 8.01769 58.2437 7.50559 57.9902C6.99348 57.7368 6.42802 57.6101 5.80923 57.6101C5.16909 57.6101 4.58764 57.7421 4.06486 58.0061C3.55275 58.2701 3.10999 58.6291 2.73658 59.0831C2.37383 59.5266 2.09111 60.0281 1.8884 60.5877C1.69636 61.1473 1.60034 61.7175 1.60034 62.2982Z" fill="url(#paint6_linear_772_16011)"/>
    <path d="M22.6124 67.9208V56.6757H27.3174C27.8082 56.6757 28.2563 56.776 28.6617 56.9766C29.0778 57.1772 29.4352 57.4518 29.7339 57.8002C30.0326 58.1381 30.2674 58.5182 30.4381 58.9405C30.6088 59.3523 30.5858 59.8387 30.5858 59.8387C30.5858 59.8387 30.5554 60.5616 30.278 61.1106C30.0113 61.6491 29.6325 62.0873 29.1418 62.4252C28.651 62.7631 28.0749 62.932 27.4134 62.932H23.7326V67.9208H22.6124ZM23.7326 61.9501H27.3654C27.8135 61.9501 28.2029 61.8286 28.5336 61.5858C28.8644 61.3429 29.1204 61.0262 29.3018 60.6355C29.4832 60.2448 29.445 59.8387 29.445 59.8387C29.445 59.8387 29.4672 59.3154 29.2538 58.9247C29.0404 58.534 28.7577 58.2278 28.4056 58.0061C28.0642 57.7738 27.6855 57.6576 27.2694 57.6576H23.7326V61.9501Z" fill="black"/>
    <path d="M22.6124 67.9208V56.6757H27.3174C27.8082 56.6757 28.2563 56.776 28.6617 56.9766C29.0778 57.1772 29.4352 57.4518 29.7339 57.8002C30.0326 58.1381 30.2674 58.5182 30.4381 58.9405C30.6088 59.3523 30.5858 59.8387 30.5858 59.8387C30.5858 59.8387 30.5554 60.5616 30.278 61.1106C30.0113 61.6491 29.6325 62.0873 29.1418 62.4252C28.651 62.7631 28.0749 62.932 27.4134 62.932H23.7326V67.9208H22.6124ZM23.7326 61.9501H27.3654C27.8135 61.9501 28.2029 61.8286 28.5336 61.5858C28.8644 61.3429 29.1204 61.0262 29.3018 60.6355C29.4832 60.2448 29.445 59.8387 29.445 59.8387C29.445 59.8387 29.4672 59.3154 29.2538 58.9247C29.0404 58.534 28.7577 58.2278 28.4056 58.0061C28.0642 57.7738 27.6855 57.6576 27.2694 57.6576H23.7326V61.9501Z" fill="url(#paint7_linear_772_16011)"/>
    <path d="M49.5632 66.9388V67.9208H41.9296V56.6757H49.4192V57.6576H43.0498V61.7122H47.0768V62.6467H43.0498V66.9388H49.5632Z" fill="black"/>
    <path d="M49.5632 66.9388V67.9208H41.9296V56.6757H49.4192V57.6576H43.0498V61.7122H47.0768V62.6467H43.0498V66.9388H49.5632Z" fill="url(#paint8_linear_772_16011)"/>
    <path d="M61.0436 67.9208V56.6757H65.8447C66.3354 56.6757 66.7835 56.776 67.1889 56.9766C67.5944 57.1772 67.9464 57.4518 68.2452 57.8002C68.5546 58.1381 68.7893 58.5182 68.9493 58.9405C69.12 59.3523 69.0859 60.0908 69.0859 60.0908C69.0859 60.0908 69.0987 60.4138 68.8853 60.8889C68.6826 61.364 68.3892 61.7653 68.0051 62.0926C67.6317 62.4199 67.1889 62.6364 66.6768 62.742L69.4614 67.9208H68.1972L65.5246 62.932H62.1639V67.9208H61.0436ZM62.1639 61.9501H65.8767C66.3248 61.9501 66.7142 61.8286 67.0449 61.5858C67.3756 61.3429 67.6317 61.0262 67.8131 60.6355C67.9944 60.2343 67.96 60.0145 67.96 60.0145C67.96 60.0145 67.9784 59.3365 67.7651 58.9564C67.5623 58.5657 67.285 58.2542 66.9329 58.0219C66.5915 57.7791 66.2074 57.6576 65.7806 57.6576H62.1639V61.9501Z" fill="black"/>
    <path d="M61.0436 67.9208V56.6757H65.8447C66.3354 56.6757 66.7835 56.776 67.1889 56.9766C67.5944 57.1772 67.9464 57.4518 68.2452 57.8002C68.5546 58.1381 68.7893 58.5182 68.9493 58.9405C69.12 59.3523 69.0859 60.0908 69.0859 60.0908C69.0859 60.0908 69.0987 60.4138 68.8853 60.8889C68.6826 61.364 68.3892 61.7653 68.0051 62.0926C67.6317 62.4199 67.1889 62.6364 66.6768 62.742L69.4614 67.9208H68.1972L65.5246 62.932H62.1639V67.9208H61.0436ZM62.1639 61.9501H65.8767C66.3248 61.9501 66.7142 61.8286 67.0449 61.5858C67.3756 61.3429 67.6317 61.0262 67.8131 60.6355C67.9944 60.2343 67.96 60.0145 67.96 60.0145C67.96 60.0145 67.9784 59.3365 67.7651 58.9564C67.5623 58.5657 67.285 58.2542 66.9329 58.0219C66.5915 57.7791 66.2074 57.6576 65.7806 57.6576H62.1639V61.9501Z" fill="url(#paint9_linear_772_16011)"/>
    <path d="M84.3348 56.6757H85.279L90 67.9208H88.8158L87.3434 64.4047H82.2384L80.7821 67.9208H79.5818L84.3348 56.6757ZM87.0874 63.5336L84.7989 57.9744L82.4784 63.5336H87.0874Z" fill="black"/>
    <path d="M84.3348 56.6757H85.279L90 67.9208H88.8158L87.3434 64.4047H82.2384L80.7821 67.9208H79.5818L84.3348 56.6757ZM87.0874 63.5336L84.7989 57.9744L82.4784 63.5336H87.0874Z" fill="url(#paint10_linear_772_16011)"/>
    <path d="M4.753 38.1008H5.6972L10.4182 49.3459H9.23395L7.76164 45.8298H2.65656L1.20025 49.3459H0L4.753 38.1008ZM7.50559 44.9587L5.2171 39.3995L2.89661 44.9587H7.50559Z" fill="black"/>
    <path d="M4.753 38.1008H5.6972L10.4182 49.3459H9.23395L7.76164 45.8298H2.65656L1.20025 49.3459H0L4.753 38.1008ZM7.50559 44.9587L5.2171 39.3995L2.89661 44.9587H7.50559Z" fill="url(#paint11_linear_772_16011)"/>
    <path d="M23.8133 40.2072C23.6532 40.0277 23.4665 39.8694 23.2532 39.7321C23.0398 39.5843 22.7997 39.4576 22.533 39.352C22.2663 39.2464 21.9782 39.1619 21.6688 39.0986C21.3701 39.0352 21.05 39.0035 20.7086 39.0035C19.7164 39.0035 18.9856 39.1936 18.5162 39.5737C18.0574 39.9433 17.828 40.4501 17.828 41.0942C17.828 41.5377 17.9347 41.8861 18.1481 42.1395C18.3721 42.3929 18.7189 42.5988 19.1883 42.7572C19.6577 42.9156 20.2552 43.0792 20.9807 43.2482C21.7915 43.4171 22.4903 43.6177 23.0771 43.85C23.6639 44.0823 24.1173 44.3991 24.4374 44.8003C24.7575 45.191 24.9175 45.7242 24.9175 46.4C24.9175 46.9174 24.8162 47.3661 24.6134 47.7462C24.4107 48.1263 24.128 48.4431 23.7653 48.6965C23.4025 48.9499 22.9704 49.14 22.469 49.2667C21.9676 49.3828 21.4181 49.4409 20.8206 49.4409C20.2339 49.4409 19.6684 49.3828 19.1243 49.2667C18.5908 49.14 18.0841 48.9605 17.604 48.7282C17.1239 48.4853 16.6758 48.1791 16.2597 47.8096L16.8198 46.9068C17.0225 47.118 17.2626 47.3186 17.54 47.5086C17.828 47.6881 18.1427 47.8518 18.4842 47.9996C18.8362 48.1474 19.2096 48.2636 19.6044 48.3481C20.0098 48.422 20.4259 48.4589 20.8527 48.4589C21.7595 48.4589 22.4637 48.2953 22.9651 47.9679C23.4772 47.6406 23.7333 47.1549 23.7333 46.5108C23.7333 46.0463 23.6052 45.6767 23.3492 45.4022C23.0931 45.1171 22.709 44.8848 22.1969 44.7053C21.6848 44.5258 21.0554 44.3516 20.3085 44.1826C19.519 44.0031 18.8522 43.8025 18.3081 43.5808C17.764 43.359 17.3532 43.0687 17.0759 42.7097C16.8091 42.3401 16.6758 41.8544 16.6758 41.2526C16.6758 40.5557 16.8465 39.9697 17.1879 39.4945C17.54 39.0088 18.0201 38.6445 18.6282 38.4017C19.2363 38.1483 19.9351 38.0216 20.7246 38.0216C21.2261 38.0216 21.6902 38.0744 22.1169 38.18C22.5543 38.275 22.9544 38.4175 23.3172 38.6076C23.6906 38.7977 24.0373 39.0352 24.3574 39.3203L23.8133 40.2072Z" fill="black"/>
    <path d="M23.8133 40.2072C23.6532 40.0277 23.4665 39.8694 23.2532 39.7321C23.0398 39.5843 22.7997 39.4576 22.533 39.352C22.2663 39.2464 21.9782 39.1619 21.6688 39.0986C21.3701 39.0352 21.05 39.0035 20.7086 39.0035C19.7164 39.0035 18.9856 39.1936 18.5162 39.5737C18.0574 39.9433 17.828 40.4501 17.828 41.0942C17.828 41.5377 17.9347 41.8861 18.1481 42.1395C18.3721 42.3929 18.7189 42.5988 19.1883 42.7572C19.6577 42.9156 20.2552 43.0792 20.9807 43.2482C21.7915 43.4171 22.4903 43.6177 23.0771 43.85C23.6639 44.0823 24.1173 44.3991 24.4374 44.8003C24.7575 45.191 24.9175 45.7242 24.9175 46.4C24.9175 46.9174 24.8162 47.3661 24.6134 47.7462C24.4107 48.1263 24.128 48.4431 23.7653 48.6965C23.4025 48.9499 22.9704 49.14 22.469 49.2667C21.9676 49.3828 21.4181 49.4409 20.8206 49.4409C20.2339 49.4409 19.6684 49.3828 19.1243 49.2667C18.5908 49.14 18.0841 48.9605 17.604 48.7282C17.1239 48.4853 16.6758 48.1791 16.2597 47.8096L16.8198 46.9068C17.0225 47.118 17.2626 47.3186 17.54 47.5086C17.828 47.6881 18.1427 47.8518 18.4842 47.9996C18.8362 48.1474 19.2096 48.2636 19.6044 48.3481C20.0098 48.422 20.4259 48.4589 20.8527 48.4589C21.7595 48.4589 22.4637 48.2953 22.9651 47.9679C23.4772 47.6406 23.7333 47.1549 23.7333 46.5108C23.7333 46.0463 23.6052 45.6767 23.3492 45.4022C23.0931 45.1171 22.709 44.8848 22.1969 44.7053C21.6848 44.5258 21.0554 44.3516 20.3085 44.1826C19.519 44.0031 18.8522 43.8025 18.3081 43.5808C17.764 43.359 17.3532 43.0687 17.0759 42.7097C16.8091 42.3401 16.6758 41.8544 16.6758 41.2526C16.6758 40.5557 16.8465 39.9697 17.1879 39.4945C17.54 39.0088 18.0201 38.6445 18.6282 38.4017C19.2363 38.1483 19.9351 38.0216 20.7246 38.0216C21.2261 38.0216 21.6902 38.0744 22.1169 38.18C22.5543 38.275 22.9544 38.4175 23.3172 38.6076C23.6906 38.7977 24.0373 39.0352 24.3574 39.3203L23.8133 40.2072Z" fill="url(#paint12_linear_772_16011)"/>
    <path d="M40.2239 39.0827H36.175V49.3459H35.0548V39.0827H31.0059V38.1008H40.2239V39.0827Z" fill="black"/>
    <path d="M40.2239 39.0827H36.175V49.3459H35.0548V39.0827H31.0059V38.1008H40.2239V39.0827Z" fill="url(#paint13_linear_772_16011)"/>
    <path d="M49.6337 38.1008H50.5779L55.2989 49.3459H54.1147L52.6424 45.8298H47.5373L46.081 49.3459H44.8807L49.6337 38.1008ZM52.3863 44.9587L50.0978 39.3995L47.7773 44.9587H52.3863Z" fill="black"/>
    <path d="M49.6337 38.1008H50.5779L55.2989 49.3459H54.1147L52.6424 45.8298H47.5373L46.081 49.3459H44.8807L49.6337 38.1008ZM52.3863 44.9587L50.0978 39.3995L47.7773 44.9587H52.3863Z" fill="url(#paint14_linear_772_16011)"/>
    <path d="M63.3291 40.1439V49.3459H62.2089V38.1008H63.1371L70.5947 47.477V38.1166H71.7149V49.3459H70.6747L63.3291 40.1439Z" fill="black"/>
    <path d="M63.3291 40.1439V49.3459H62.2089V38.1008H63.1371L70.5947 47.477V38.1166H71.7149V49.3459H70.6747L63.3291 40.1439Z" fill="url(#paint15_linear_772_16011)"/>
    <path d="M83.3727 38.1008H84.3169L89.0379 49.3459H87.8537L86.3814 45.8298H81.2763L79.82 49.3459H78.6197L83.3727 38.1008ZM86.1253 44.9587L83.8368 39.3995L81.5163 44.9587H86.1253Z" fill="black"/>
    <path d="M83.3727 38.1008H84.3169L89.0379 49.3459H87.8537L86.3814 45.8298H81.2763L79.82 49.3459H78.6197L83.3727 38.1008ZM86.1253 44.9587L83.8368 39.3995L81.5163 44.9587H86.1253Z" fill="url(#paint16_linear_772_16011)"/>
    <defs>
        <linearGradient id="paint0_linear_772_16011" x1="61.6952" y1="20.6622" x2="8.56539" y2="31.4126" gradientUnits="userSpaceOnUse">
            <stop stop-color="#A77E4A"/>
            <stop offset="1" stop-color="#E6C599"/>
        </linearGradient>
        <linearGradient id="paint1_linear_772_16011" x1="61.6952" y1="20.6622" x2="8.56539" y2="31.4126" gradientUnits="userSpaceOnUse">
            <stop stop-color="#A77E4A"/>
            <stop offset="1" stop-color="#E6C599"/>
        </linearGradient>
        <linearGradient id="paint2_linear_772_16011" x1="61.6952" y1="20.6622" x2="8.56539" y2="31.4126" gradientUnits="userSpaceOnUse">
            <stop stop-color="#A77E4A"/>
            <stop offset="1" stop-color="#E6C599"/>
        </linearGradient>
        <linearGradient id="paint3_linear_772_16011" x1="61.6952" y1="20.6622" x2="8.56539" y2="31.4126" gradientUnits="userSpaceOnUse">
            <stop stop-color="#A77E4A"/>
            <stop offset="1" stop-color="#E6C599"/>
        </linearGradient>
        <linearGradient id="paint4_linear_772_16011" x1="61.6952" y1="20.6622" x2="8.56539" y2="31.4126" gradientUnits="userSpaceOnUse">
            <stop stop-color="#A77E4A"/>
            <stop offset="1" stop-color="#E6C599"/>
        </linearGradient>
        <linearGradient id="paint5_linear_772_16011" x1="44.6221" y1="0" x2="44.6221" y2="16.5796" gradientUnits="userSpaceOnUse">
            <stop stop-color="#A77E4A"/>
            <stop offset="1" stop-color="#E6C599"/>
        </linearGradient>
        <linearGradient id="paint6_linear_772_16011" x1="-1.02819e-06" y1="50.6035" x2="90.0122" y2="52.367" gradientUnits="userSpaceOnUse">
            <stop stop-color="#A77E4A"/>
            <stop offset="1" stop-color="#E6C599"/>
        </linearGradient>
        <linearGradient id="paint7_linear_772_16011" x1="-1.02819e-06" y1="50.6035" x2="90.0122" y2="52.367" gradientUnits="userSpaceOnUse">
            <stop stop-color="#A77E4A"/>
            <stop offset="1" stop-color="#E6C599"/>
        </linearGradient>
        <linearGradient id="paint8_linear_772_16011" x1="-1.02819e-06" y1="50.6035" x2="90.0122" y2="52.367" gradientUnits="userSpaceOnUse">
            <stop stop-color="#A77E4A"/>
            <stop offset="1" stop-color="#E6C599"/>
        </linearGradient>
        <linearGradient id="paint9_linear_772_16011" x1="-1.02819e-06" y1="50.6035" x2="90.0122" y2="52.367" gradientUnits="userSpaceOnUse">
            <stop stop-color="#A77E4A"/>
            <stop offset="1" stop-color="#E6C599"/>
        </linearGradient>
        <linearGradient id="paint10_linear_772_16011" x1="-1.02819e-06" y1="50.6035" x2="90.0122" y2="52.367" gradientUnits="userSpaceOnUse">
            <stop stop-color="#A77E4A"/>
            <stop offset="1" stop-color="#E6C599"/>
        </linearGradient>
        <linearGradient id="paint11_linear_772_16011" x1="-1.02819e-06" y1="50.6035" x2="90.0122" y2="52.367" gradientUnits="userSpaceOnUse">
            <stop stop-color="#A77E4A"/>
            <stop offset="1" stop-color="#E6C599"/>
        </linearGradient>
        <linearGradient id="paint12_linear_772_16011" x1="-1.02819e-06" y1="50.6035" x2="90.0122" y2="52.367" gradientUnits="userSpaceOnUse">
            <stop stop-color="#A77E4A"/>
            <stop offset="1" stop-color="#E6C599"/>
        </linearGradient>
        <linearGradient id="paint13_linear_772_16011" x1="-1.02819e-06" y1="50.6035" x2="90.0122" y2="52.367" gradientUnits="userSpaceOnUse">
            <stop stop-color="#A77E4A"/>
            <stop offset="1" stop-color="#E6C599"/>
        </linearGradient>
        <linearGradient id="paint14_linear_772_16011" x1="-1.02819e-06" y1="50.6035" x2="90.0122" y2="52.367" gradientUnits="userSpaceOnUse">
            <stop stop-color="#A77E4A"/>
            <stop offset="1" stop-color="#E6C599"/>
        </linearGradient>
        <linearGradient id="paint15_linear_772_16011" x1="-1.02819e-06" y1="50.6035" x2="90.0122" y2="52.367" gradientUnits="userSpaceOnUse">
            <stop stop-color="#A77E4A"/>
            <stop offset="1" stop-color="#E6C599"/>
        </linearGradient>
        <linearGradient id="paint16_linear_772_16011" x1="-1.02819e-06" y1="50.6035" x2="90.0122" y2="52.367" gradientUnits="userSpaceOnUse">
            <stop stop-color="#A77E4A"/>
            <stop offset="1" stop-color="#E6C599"/>
        </linearGradient>
    </defs>
</svg>
