<svg xmlns="http://www.w3.org/2000/svg" viewBox="0 0 484 140" width="484" height="140">
	<defs>
		<clipPath clipPathUnits="userSpaceOnUse" id="cp1">
			<path d="M0 0L484 0L484 140L0 140Z" />
		</clipPath>
	</defs>
	<style>
		tspan { white-space:pre }
		.shp0 { fill: #034ea1 } 
	</style>
	<g id="Page 1" clip-path="url(#cp1)">
		<path id="Path 1" fill-rule="evenodd" class="shp0" d="M335.85 29.41L277.11 29.41L292.68 2.43L385.75 2.43L323.46 110.33L393.84 110.33L378.27 137.31L273.55 137.31M145.67 69.87C145.67 110.33 114.65 140 72.86 140C30.96 140 0 110.33 0 69.87C0 29.41 30.96 -0.27 72.86 -0.27C114.65 -0.27 145.67 29.41 145.67 69.87ZM114.65 69.87C114.65 46.75 97.11 28.06 72.85 28.06C48.56 28.06 31.02 46.75 31.02 69.87C31.02 92.86 48.56 111.68 72.85 111.68C97.11 111.68 114.65 92.8 114.65 69.87ZM163.2 2.43L264.36 2.43L248.79 29.41L192.87 29.41L192.87 55.03L257.62 55.03L242.04 82.01L192.87 82.01L192.87 110.33L267.06 110.33L251.48 137.3L163.2 137.3M483.78 104.08L397.53 104.08L440.65 29.38" />
	</g>
</svg>